<svg viewBox="0 0 30 39" xmlns="http://www.w3.org/2000/svg">
  <g fill="#9698A3" fill-rule="nonzero">
    <path d="M5.00844434,12.2828936 C4.74562794,11.4226581 4.49326446,10.5609792 4.30361854,9.73538397 C3.05673392,9.02236994 2.20855372,7.72479986 2.20855372,6.22516102 C2.20855372,3.9692077 4.10650624,2.13615542 6.43900178,2.13615542 C8.77149733,2.13615542 10.6694498,3.97065105 10.6694498,6.22516102 C10.6694498,6.53548089 10.6261449,6.83425398 10.5589475,7.12436698 C10.963625,7.98604589 11.2906522,8.95597592 11.577361,9.94178277 C12.3837295,8.90257203 12.8794968,7.62520883 12.8794968,6.22516102 C12.8794968,2.78566213 9.9974761,0 6.43900178,0 C2.88052747,0 0,2.78566213 0,6.22516102 C0,9.18691164 2.14284962,11.6535938 5.00844434,12.2828936 Z" transform="translate(.100563 .620738)"/>
    <path d="M0.652002755,27.5904598 C2.23412923,25.9067724 4.00974247,26.56618 6.38665308,26.9222601 C8.42868273,27.231449 10.4394568,26.6672891 10.3055044,25.5814646 C10.0941574,23.8245097 9.79648539,23.039082 9.11928168,20.7633931 C8.57900707,18.9536856 7.55352717,15.6918161 6.62032557,12.5735508 C5.37010334,8.40169875 5.0084319,6.46450577 6.67241816,5.9809402 C8.46589173,5.46660227 9.49434835,7.97528184 10.4260616,11.4540232 C11.4872621,15.4133995 12.0453971,17.1615623 12.3579526,17.0692453 C12.9086457,16.9139181 12.1555357,15.2199733 13.596268,14.8023485 C15.3971833,14.2865452 15.7454595,15.6727665 16.2500135,15.5335582 C16.7545675,15.3840925 16.5834061,13.980287 18.0196733,13.5670582 C19.4633823,13.1567602 20.1882136,14.9063883 20.7835575,14.7320117 C21.372948,14.5605657 21.3595527,13.9289997 22.2495919,13.6784249 C23.1411194,13.4175925 26.4958824,14.8961309 28.4158666,21.3539293 C30.8255211,29.4734348 28.1107528,30.9827455 28.9338158,33.7317425 L18.1774395,37.7585249 C17.306749,35.6967771 14.609841,35.5443807 12.2240002,34.2299616 C9.82029915,32.8979582 8.18756845,30.302823 1.92306203,30.4288431 C-0.433011542,30.4757343 -0.321384557,28.6264624 0.652002755,27.5904598 Z" transform="translate(.100563 .620738)"/>
  </g>
</svg>
