<svg version="1" xmlns="http://www.w3.org/2000/svg" width="2852" height="2852" viewBox="0 0 2139.000000 2139.000000"><path d="M1481.1 1.6c-10.6 1.8-27.6 7.4-36.6 12.2l-7 3.7-.3 84.2c-.1 46.4 0 84.3.2 84.3.3 0 3.2-1.6 6.5-3.5 33.3-19.5 75-28.4 114.8-24.4l11.3 1.2v28.3c0 15.6.3 28.4.6 28.4s2.7-1.7 5.3-3.8c18.2-15.1 43.2-27.4 69.5-34.2 18.9-4.9 31.8-6.4 55.1-6.4 22.1 0 32.4 1 51.5 5 6.3 1.3 11.8 2.4 12.3 2.4 3.5 0-6.1-11.9-16.6-20.8-9.3-7.7-22.3-16-34.3-21.7-16.7-8-46.3-16.8-64.1-19.1l-5.3-.7V45.4l-9.7-5.6c-35.4-20.3-70.7-33.6-101.9-38.3-12.4-1.9-39.8-1.8-51.3.1zm44.5 16.4c10.4 1.9 24.9 5.2 25.7 6 .4.4-2.7 1.9-7 3.4-13.9 4.9-23.6 11-34.5 21.5l-5.7 5.5 8.2 2.4c12.1 3.5 22.7 8.3 33.3 15.4l9.5 6.3-3.3 1.4c-18.8 8.2-30.1 14.4-42.2 23l-4.9 3.5 7.9 1.7c18.9 4.1 33 13.3 39.3 25.8l2.1 4-5-.4c-2.8-.3-7.3-.7-10-1-7-.6-25.5 1.2-36 3.4-11.8 2.6-22.5 6.3-34.9 12.2-5.7 2.7-10.5 4.9-10.7 4.9-.2 0-.4-29.2-.4-64.9V27.2l8.4-3.1c10.2-3.7 19-6 27.1-7.1 6.9-1 24.6-.4 33.1 1z"/><path d="M1413 29.4c-12.2 9-22 23.9-24 36.6-.6 4.3-1 126.6-1 361.2V782h-44l-.2-282.8-.3-282.7-3.3-6.7c-4.5-9.2-13.9-17.1-24-20.2l-2.2-.7.2 300.3.3 300.3 2.4 5.3c3.1 6.8 11.1 14.2 18.2 16.7 4.6 1.6 9.1 1.9 29.2 2.3l23.7.4v246.3l-3.5-8c-11.3-25.9-33.1-44.9-60-52.1-9.6-2.6-32.2-2.7-41.3-.2-32.8 9.1-58.3 34.2-66.2 65.2-1.9 7.3-2 11.1-2 51.8v43.8h-24v-88.8c0-84.8-.1-89.1-2-96.9-7.5-31.5-34.6-57.9-67.7-66-4.4-1.1-11-1.6-18.8-1.6-13.4 0-21.3 1.5-33.1 6.4-11 4.6-21.9 12.1-30.9 21.3-9.5 9.8-16.1 20.6-20.7 33.7l-3.3 9.4-.3 48.7-.3 48.8 2.5 2.5c3 3 5.6 3.2 8.7.6 2.3-1.8 2.4-2.7 3-16.8 1-24.2 3.7-28.5 28.4-44.6 7.2-4.6 14.8-10.2 17-12.4l4-4 5.5 4.8c3 2.6 10.9 8.2 17.5 12.4 19.4 12.5 25.3 19.5 27.5 32.6.6 3.8 1 27.4 1 58.1v51.8h-111.8c-123.1 0-117.6-.3-126.9 6.1-3 2.1-5.1 4.8-7.5 9.6l-3.3 6.8-.3 48.7-.3 48.7-36.7.3-36.7.3-5.8 2.8c-3.8 1.9-6.9 4.4-9.2 7.4-6.4 8.4-6.5 9.5-6.5 61.5v46.8h-16.2c-19.6 0-27.1 1.1-35 5.1-9.7 4.9-17.2 14.1-20.3 24.6l-.6 2.3H853v-119h95v-120l235.3-.2 235.2-.3.3-189.3.2-189.2h48l.2 189.2.3 189.3 100 .3c58.1.1 102.8-.2 106.8-.7 9-1.2 18.6-5.8 24.1-11.6 4.6-4.7 9.6-13.8 9.6-17.4v-2.1h-210V814h211.1l-.3-105.8-.3-105.7-2.8-8.8c-3.3-10.7-7-18.2-13-26.3-25-34-66.8-47-103.7-32.3-26.3 10.5-47.9 34.2-55.2 60.7-2.1 7.4-2.2 9.7-2.2 54.9-.1 47.1-.1 47.2 2.1 49.4 2.7 2.7 6.9 2.8 9.6 0 1.9-1.9 2.2-3.6 2.7-17.3.5-14.1.8-15.7 3.4-20.8 3.9-7.8 7.3-11 23.1-21.5 7.7-5.1 16-11.2 18.4-13.4 2.4-2.3 4.6-4.1 4.8-4.1.3 0 3.1 2.4 6.2 5.3 3.2 2.9 11 8.5 17.4 12.5 13.6 8.5 19.5 14 23.4 22l2.8 5.7.3 56.7.3 56.8H1498V294.9l-2.2.6c-9.9 3-20.4 12.3-25.1 22.2l-3.2 6.8-.3 228.7-.2 228.8h-48V404c0-207.9-.3-378-.7-378-.5 0-2.8 1.5-5.3 3.4zm-80.9 1066.2c1.8 2 9.7 7.8 17.4 12.9 15.6 10.3 23.3 17.7 26 25.2 1.1 2.9 1.9 9.2 2.2 16l.6 11.3h-101.6l.6-10.8c1-20 6.1-27.6 27.7-40.9 6.3-3.9 14-9.4 17-12.2 3-2.7 5.7-5 6.1-5.1.3 0 2.1 1.6 4 3.6z"/><path d="M1255 182.1c-10.5 1.8-22.6 6.1-35.7 12.5l-13.3 6.5v16c0 11.9-.3 16.1-1.2 16.3-.7.2-4.9 1.1-9.3 2.1-10.8 2.3-21.5 6.7-29.6 12-6.5 4.4-14.6 12.2-13.6 13.2.3.2 5.4-.3 11.4-1.3 13.4-2.1 30.2-1.5 41.8 1.5 9.3 2.4 22 8.4 28.8 13.6l4.7 3.6V253l2.5-.6c4.4-1.1 26.7.3 33 2 3.3.9 9.8 3.4 14.3 5.6 4.6 2.2 8.6 4 8.8 4 .2 0 .4-16.9.4-37.5v-37.4l-2.8-1.5c-10.2-5.3-27.9-7.7-40.2-5.5zm28 9.6l5.5 1.8.3 28.7.2 28.7-7.1-2.9c-9.2-3.8-21.3-6.3-28.9-5.8-3.3.1-6 0-6-.4 0-3.4 12.4-11.8 17.6-11.8 5.8 0 2.2-3.4-10.4-9.7l-8.4-4.2 5.4-3c4.5-2.7 10.4-5.2 15.7-6.7 3.1-1-6.1-8.5-14.6-11.9l-5.4-2.2 5.8-1.1c3.2-.7 6.7-1.4 7.8-1.6 4-1 17.1.3 22.5 2.1zM1530 287.7c-4.5.7-14.4 4.3-17.7 6.3l-3.3 2v37c0 20.3.3 37 .6 37s4.2-1.8 8.7-4c12.3-5.9 23-8.1 37.9-7.8l12.3.3.3 12.3c.1 6.8.6 12.2 1 12 .4-.2 3.9-2.4 7.9-5.1 18.3-12.1 43.5-16.6 68.8-12.2 4.8.9 9 1.3 9.3 1 .3-.3-2.1-3.2-5.4-6.4-9.7-9.4-22.5-15.5-40.8-19.6l-7.6-1.7v-31.6l-11.7-6c-13.2-6.7-23.1-10.3-34.5-12.6-7.1-1.5-19.8-1.9-25.8-.9zm26.5 9.4l4 1.1-5 2c-5.1 2-15.5 9.2-15.5 10.7 0 .5 2.5 1.7 5.5 2.6 3 1 8 3.4 11.1 5.3l5.6 3.5-4.9 2.1c-2.8 1.2-7.8 3.9-11.3 6-7 4.3-7 4.2 1.8 6.5 2.8.8 5.9 2.8 9 5.9l4.7 4.6-10.5.7c-10.5.7-20.8 3.2-28.2 7l-3.8 1.9v-57.7l6.8-2.2c5.6-1.7 8.4-2 16.7-1.7 5.5.3 11.8 1 14 1.7zM1847.5 530.7c-31.7 6.7-58.2 30.7-68.6 61.8-2.3 6.9-2.4 7.7-2.7 56.1-.3 46.6-.2 49.2 1.6 51.4 2.3 2.9 6.7 3 9.5.1 1.9-1.9 2.2-3.6 2.7-17.3.6-14 .9-15.7 3.3-20.5 4.2-8.1 8-11.8 22.1-21 7.2-4.7 15.7-10.8 18.9-13.5l5.8-5 4.8 4.5c2.6 2.4 11.3 8.7 19.3 14 15.1 9.9 19.2 13.9 23.1 22.4 2.2 4.8 2.2 5.3 2.5 61.5l.3 56.8h-57.5c-38.2 0-59.3.4-62.8 1.1-7.5 1.6-14.5 5.3-20.2 10.7-4.7 4.5-10.6 14.8-10.6 18.4 0 1.7 5.8 1.8 107 1.8h107V711.1c0-111.8.1-110.6-5.6-124.7-15.9-39.7-59.9-64.3-99.9-55.7zM1208.5 552.4c-8.8 2.8-13.6 6.7-17.3 14.1-3.6 7.2-4.2 14.5-4.2 50.7V652h-35.3c-38.4 0-41.5.4-48.3 5.5-1.9 1.5-4.6 4.4-6.1 6.6-5 7.5-5.3 11.2-5.3 66.6V782H957.2c-93.3 0-136.7.3-140.8 1.1-15.6 2.9-27.4 13.4-31.9 28.6l-.6 2.3H1162V683h95V582h37v-31l-40.7.1c-30 0-41.9.4-44.8 1.3zM1549.2 865.2l.3 12.3h74l.3-12.3.3-12.2h-75.2l.3 12.2zM1634.2 865.2l.3 12.3h74l.3-12.3.3-12.2h-75.2l.3 12.2zM625 953.5V966l37.3-.2 37.2-.3.3-12.3.3-12.2H625v12.5zM710 953.5V966l37.3-.2 37.2-.3.3-12.3.3-12.2H710v12.5zM215.5 966.8c-11.8 4.1-18.9 10.4-22.5 20-1.9 5-2 7.9-2 55.7v50.5h94v100l237.8-.2c226.4-.3 237.9-.4 242.3-2.1 9.7-3.8 16.4-12.1 18.8-23.5 1.5-7 1.5-83.2 0-93.8-2.3-16.4-10.5-32.7-23.3-46.2-12.1-12.8-27.3-21.8-44.1-26.3-10.3-2.8-28.7-3-38.8-.6-32.8 8.1-59.7 34.1-67.8 65.5-1.7 6.9-1.9 11.4-1.9 51.4v43.8H354.1l-.3-38.8c-.3-37.2-.4-38.9-2.5-43.3-3-6.6-8-11.9-13.8-14.5-4.9-2.4-5.4-2.4-41.2-2.4H260v-97h-19.7c-16.1.1-20.7.4-24.8 1.8zm528.9 143.6c21.6 14.3 25.5 20.2 26.4 39.8l.5 10.8H670v-8.3c0-14.8 4.4-25.7 13.3-33 2.3-1.9 9.1-6.5 15.1-10.2 6-3.7 13.4-9.2 16.5-12l5.6-5.3 4.7 4.3c2.7 2.4 11.3 8.6 19.2 13.9zM192.4 1364c-1.2.4-3.1 2.1-4.4 3.7-1.9 2.4-2.1 3.7-1.8 9 .5 8.3 2.9 10.9 10.7 11.8 10.3 1.2 23.5 3.6 31.4 5.7 21.3 5.6 31.9 21.1 37.4 54.3 1.5 9 1.7 27.3 2 175.6.4 185.2.6 179.4-6.2 193.7-7.8 16.4-22.8 24.7-53.9 29.7-11.5 1.9-13 2.5-15.6 6.8-2.5 4-2.5 9 0 14.4 3 6.6 4 6.8 25.6 4.4 32.3-3.6 46.8-4.4 82.4-4.4 23.9 0 40.2.5 53 1.7 47.6 4.2 95.2 4.7 122 1.2 80.2-10.5 136.2-40.8 174.7-94.4 22.7-31.7 36.5-69 41.9-113.3 2.3-18.7 2.3-55.3 0-71.9-7.8-57.5-30.6-105.2-69.1-144.9-21.1-21.7-43.9-38.3-71-51.6-49.7-24.4-97.2-33.6-161-31.4-47.1 1.7-124.8 2.2-149.9 1-41.2-1.9-46-2-48.2-1.1zm232.6 38.5c68 8.1 112.9 32.7 140 77 22.2 36.1 33.5 92.3 31.6 157-1.2 43.1-7.3 75.4-20.3 107-22.3 54.6-62.9 88.2-114.3 94.5-16.6 2-50.6.8-67.8-2.5-19.2-3.7-30.6-13.5-36.6-31.5-7.1-21.4-7.8-42.9-7.4-233 .4-169 0-160 5.9-165.6 4.9-4.7 10.1-5.5 33.9-4.9 11.8.2 27.6 1.1 35 2zM1412 1519c-21.1 2.2-44.9 9.2-62.1 18.2-24.1 12.5-40.3 29.5-48.2 50.2-2.9 7.5-3.1 9-3.2 21.1 0 12.5.1 13.3 3.1 19.5 3.8 8 8.2 12.5 15.4 15.9 5 2.3 6.7 2.6 17.5 2.6 11.2 0 12.4-.2 17.8-2.8 6.7-3.3 14.5-10.7 17.3-16.3 1.3-2.7 1.9-6 1.9-10.9 0-6.4-.4-7.8-4.7-16.4-4.1-7.9-4.8-10.2-4.8-15 0-13.4 7.2-23.2 22.4-30.6 11.6-5.7 21.4-7.7 37.6-7.7 20.8-.1 33 4.2 44.6 15.7 9.6 9.4 15.3 22.4 19 43 1.8 10.3 3.1 59 1.7 66.5l-.9 4.5-23.9 1.2c-13.2.6-29.8 1.9-37 2.8-67.1 8.5-110.7 31.6-128.1 68-7.8 16.2-10.6 32.9-8.6 52.4 3.7 37.6 21.6 61.4 53.7 71.9 11.4 3.7 20.2 4.7 39.5 4.5 21.1-.1 36.2-2.3 51.3-7.4 13.7-4.5 33-14.9 45.7-24.5 6.1-4.6 11.4-8.4 11.8-8.4.4 0 2 2.6 3.7 5.8 4.3 8.4 20.1 23.9 28.5 28.1 13.3 6.5 27.5 8.4 42.7 5.7 18.3-3.2 31.9-10.3 46.6-24.6 10.7-10.2 12.3-12.8 10.7-17.5-1.2-3.5-7.1-9.5-9.4-9.5-.8 0-4.5 1.8-8.2 4-8.7 5.1-12 6-21.8 6-10.6 0-15.3-2.2-18.9-8.8-4.9-9.1-4.9-9.5-5.7-114.2-.7-94.5-.8-98.9-2.8-108.1-1.1-5.3-3.4-13.6-5.1-18.5-12.2-34.8-41.6-56.6-86.8-64.3-14.1-2.4-39.8-3.4-52.3-2.1zm75 185.9c.6 1.3 1 18 1 47.6 0 36.3-.3 46.2-1.4 48.8-2.8 6.9-18.4 17.7-35.2 24.4-12.9 5.2-25 7.6-38.9 7.6-25.3.2-37.8-8.1-45.6-29.9-2.7-7.5-3.7-27.1-1.9-35.7 2-9.8 8.4-21.2 16.4-29.2 17.8-17.8 45.7-28.7 86.9-34 15-1.9 17.4-1.8 18.7.4zM1853.8 1520c-8.4 1.3-17.5 3.8-24.3 6.7-18.3 7.6-38.4 27.8-52 52-4.6 8.1-6.4 10.7-7.1 10-.2-.2.1-12.4.6-27.1 1.1-30.6.8-32.5-5.4-35.1-5-2.1-8.1-1.9-22.1 1.5-19.5 4.8-33.1 6.7-61 8.9-32.2 2.6-33.9 2.8-35.8 4.9-4 4.5-3.9 14.2.3 18.7 1.7 1.8 3.6 2.4 10.3 3 21 1.8 32.5 5.4 38.9 12.3 7.8 8.4 11.2 20.8 12.8 47.6 1.3 21 1.3 176.5 0 187.6-2.8 24.6-13.7 33.2-48.1 38.4-5.3.8-10.6 2-11.8 2.8-1.2.7-2.9 3.2-3.8 5.6-1.3 3.5-1.4 5-.5 8.1 2.2 7.1 3.6 7.6 19.6 7.3 13.7-.2 24.1-1 47.1-3.3 16.5-1.7 59.1-1.5 77.5.5 19 2 60.1 4 64.6 3.1 8.1-1.5 10.6-14.2 4-20.4-2.1-1.9-4.5-2.5-14.8-3.7-41.9-4.8-56-13.4-60-36.6-1-5.5-1.3-29.2-1.3-94.8v-87.5l2.8-8.9c5.6-17.9 15.4-34.5 27.1-46.1 11.9-11.8 21.9-16.1 35.2-15.3 13 .9 16.9 5.2 18.4 20.7 1.9 20.3 12.5 29.1 33.9 27.9 11.4-.7 19.4-4.1 25.6-11 6.5-7.2 8.8-12.8 9.3-22.3.7-14.2-4.4-28.6-14.1-39.1-6.6-7.3-12.2-10.8-22.2-14.1-6.8-2.2-10.2-2.6-23-2.9-8.2-.1-17.6.1-20.7.6zM831 1524.9c-13.9 4.7-42.4 9.1-73.5 11.6-29.1 2.2-30 2.4-32.6 5.1-4.6 5-3.2 17.1 2.4 19.4 1.2.5 6.9 1.6 12.7 2.5 21.6 3.5 29.2 7.5 34.8 18.5 4.3 8.5 6 17.3 7.2 37.2 1.3 21 1.3 183.6 0 194.8-.7 6.3-1.8 10.2-4.2 15-5.6 11-15.4 16.1-38.7 20.1-13.9 2.3-16.1 3.9-16.8 11.6-.6 6 1.6 10.9 5.5 12.4 2.7 1.1 31.8-.3 45.7-2.1 3.9-.5 16.2-1.4 27.5-2.1 21.6-1.2 42-.4 68.5 2.5 21.6 2.4 31.7 2.8 34.5 1.4 1.4-.7 3.3-3 4.4-5.1 2.3-4.8 1.5-9.7-2.2-13.7-2.2-2.5-4.1-3.3-11.2-4.6-12.4-2.3-18-4-24-7.7-11.2-6.8-14.7-14.8-16.1-36.7-.4-8-.9-72.2-.9-142.8 0-137.3.2-132.1-4.9-136.6-3-2.7-11.2-3-18.1-.7z"/><path d="M892.9 1533.9c-2.9 3-3.1 3.6-2.7 8.7.7 7.7 2.8 9.6 13.1 11.8 18.4 4 30.4 12.8 39.6 29 4.3 7.6 6.7 12.8 27.1 59.1 15.3 34.7 30.4 67 59 126.5 15 31.1 30.2 62.6 33.8 70 7.8 16.3 8.7 21.7 5.4 32.6-2.9 9.3-32.4 68.3-46.2 92.4-18.9 32.9-38 65.1-43.3 73-6.6 10-20.5 26.8-26.2 31.8-8.9 7.8-17.7 10.2-24.8 6.6-1.8-.9-6.1-4-9.7-7-3.6-2.9-7.8-5.8-9.4-6.3-4.1-1.6-13.7-1.3-19.7.6-7.5 2.4-17.7 12.5-20.7 20.5-5.8 15.5-2.6 34 7.5 42.9 4.6 4 15.6 9.4 23 11.3 8.9 2.3 25 2.1 34.3-.5 19.4-5.3 40.2-21.5 57.3-44.4 9.1-12.3 20.4-32.1 45.3-79.5 54.9-104.9 91.8-182.1 144.9-303.5 39.2-89.6 58-129.9 65-139.4 7.3-10 13.4-13.1 33.7-17.5 3.5-.8 5.8-5.1 5.8-11.1 0-3.9-.5-5.2-3-7.7l-3.1-3.1-10.2.7c-5.6.4-14.9 1.2-20.7 1.8-14.5 1.6-51.2 1.6-64 0-5.8-.7-15.6-1.4-21.8-1.5l-11.4-.2-2.5 2.9c-2.2 2.6-2.5 3.7-2.1 8.3.7 7.7 2.3 9 15.6 11.8 13.8 2.9 22.1 6.6 26.8 11.7 4.5 5.1 5.4 7.5 5.4 15.6 0 8.5-1 11.8-10.8 38.7-19.7 53.6-40.3 101.8-60.5 141-6.3 12.2-7.5 14-9.8 14.3-3.7.4-5-1.6-19.9-32.1-21.2-43.6-39.4-85.3-54.8-125.7-7.8-20.7-9.5-27.1-9.6-38-.1-6.2.3-8.1 2.2-11.3 4.1-6.6 14.6-11.3 31.8-14.2 5.4-.9 10.6-2.1 11.6-2.6 2.7-1.4 4.8-6.3 4.8-10.9 0-3.3-.6-4.8-3.1-7.2l-3-3.1-16.2.7c-8.9.4-22 1.2-29.2 1.8-16.8 1.5-67.3 1.5-84 0-7.1-.6-20.7-1.4-30.2-1.8l-17.2-.7-3.2 3.2zM1826.1 1940c-18.6 3.9-32.4 27.2-30.8 52.4 1.1 19.2 10.4 35.3 23.6 41.4 3.5 1.6 7.4 4.6 10.4 7.9 5.6 6.1 18.3 12.9 25.8 13.9l4.6.6 4.7-6.1 4.7-6.1h-5.3c-5.4 0-14.3-3.3-18-6.7-2.4-2.2-2.3-3 .6-3.7 1.3-.3 4.9-2.9 8-5.7 9.7-8.8 15.6-24 15.6-39.9 0-30.5-20.4-52.9-43.9-48zm13.2 16.3c4.6 2 10.1 8.5 12.8 15.3 3.3 8.4 3.3 25.2-.1 33.8-6.9 17.9-25 21.6-34.9 7.3-12-17.5-7.3-49.3 8.4-56.3 3.9-1.7 9.7-1.8 13.8-.1zM1114.5 1986.7c-7 25.2-13 46.4-13.2 47-.4 1 1.5 1.3 7.4 1.3h8l2.4-9.3 2.5-9.2H1153.3l2.6 9 2.7 9 8.1.3 8 .3-14.6-47.1-14.6-47h-18.1l-12.9 45.7zm28.9-4.6c3.1 10.8 5.6 19.9 5.6 20.2 0 .4-5.4.7-12.1.7-10.3 0-12-.2-11.5-1.5.3-.8 2.9-10.5 5.7-21.6 2.9-11 5.6-19.4 5.9-18.7.4.7 3.3 10.1 6.4 20.9zM1186 1988v47h43v-14h-28v-80h-15v47zM1264 1988v47h15l.2-32.5.3-32.4 10.5 17.4c5.8 9.5 10.8 17 11.2 16.7.4-.4 5.2-8.1 10.7-17.2l10.1-16.4v64.4h15v-94h-12.9l-5.8 9.5c-3.2 5.3-8.4 13.8-11.6 19.1l-5.9 9.5-11.5-19-11.6-19.1H1264v47zM1354 1969.2c0 15.6.5 31.5 1 35.4 2.7 21.1 13.3 31.7 31.5 31.7 9.9 0 16.7-2.6 22.3-8.7 8.3-9 10.1-20.1 10.2-60.9V1941h-14.9l-.3 32.2-.3 32.3-2.8 5.7c-3.5 7.1-7.5 9.8-14.4 9.8-6.6 0-11-3-14.3-9.5-2.5-5-2.5-5.1-2.8-37.8l-.3-32.7H1354v28.2zM1435 1988v47h15v-39h33v39h15v-94h-15v40h-33v-40h-15v47zM1521.4 1987.8l-13.1 46.7 7.5.3c4.1.2 7.7.1 7.9-.2.3-.2 1.5-4.4 2.7-9.3l2.2-8.8h31.9l2.6 9 2.6 9 8.1.3 8.1.3-.9-2.8c-.9-2.7-26.6-86-27.6-89.6-.5-1.5-1.8-1.7-9.7-1.7h-9.2l-13.1 46.8zm29.1-6c3.2 11.1 5.6 20.4 5.3 20.7-.3.3-5.7.4-11.9.3l-11.5-.3 5.6-21.2c3-11.7 5.8-20.9 6.1-20.5.3.4 3.2 9.8 6.4 21zM1591 1988v47h15v-39h4.5c7.4 0 9.8 3.7 17 26.7l3.9 12.3h16.5l-5.9-17.5c-7.2-21.2-8.2-23.1-12.4-25.2l-3.4-1.6 4.2-2.2c2.6-1.4 5.2-3.9 7.1-7 2.8-4.5 3-5.5 3-14.4 0-8.2-.4-10.3-2.4-14.1-3.1-5.9-4.8-7.8-9.3-10.1-3.2-1.6-6-1.9-20.8-1.9h-17v47zm29-31.7c6.5 3.2 8 16 2.5 21.7-2.6 2.8-3.4 3-9.7 3h-6.8v-26h5.8c3.1 0 6.8.6 8.2 1.3zM1658 1987.9v47.1h15v-39h4.6c7.3 0 9.4 3 15.7 22.6l5.2 16.4h16.4l-3-9.3c-9.4-28.7-10.9-32-15.7-33.8-2.5-1-2.5-1 2-3.8 5.6-3.6 8.5-8.1 9.5-15.1 1.8-11.5-1.7-22.5-9-28.4l-3.9-3.1-18.4-.3-18.4-.3v47zm31.7-29.7c5.1 5.1 4.1 18.7-1.6 21.8-1.1.5-4.9 1-8.5 1h-6.6v-26.2l7 .4c6 .3 7.4.8 9.7 3zM1744 1945.2c-.7 2.4-6.6 23.3-13.1 46.6s-11.9 42.5-11.9 42.8c0 .2 3.5.4 7.8.4h7.8l2.4-9.5 2.4-9.5h31.5l2 6.7c1.1 3.8 2.3 8 2.7 9.5.6 2.8.7 2.8 8.5 2.8 5.7 0 7.9-.3 7.8-1.3 0-.6-6.4-21.7-14.2-46.7l-14.2-45.5-9.2-.3-9.2-.3-1.1 4.3zm17 36.2c3.3 11.5 6 21.1 6 21.3 0 .2-5.4.3-12.1.3-9.3 0-12-.3-11.7-1.3.3-.6 2.9-10.5 5.9-22 3-11.4 5.5-20.4 5.6-20 .1.5 3 10.2 6.3 21.7z"/></svg>